<svg xmlns="http://www.w3.org/2000/svg" xmlns:xlink="http://www.w3.org/1999/xlink" width="800" zoomAndPan="magnify" viewBox="0 0 600 299.999988" height="400" preserveAspectRatio="xMidYMid meet" version="1.0"><defs><g/><clipPath id="bd5aa05c4f"><path d="M 417.371094 173.683594 L 433.273438 173.683594 L 433.273438 189.585938 L 417.371094 189.585938 Z M 417.371094 173.683594 " clip-rule="nonzero"/></clipPath><clipPath id="624e1409fd"><path d="M 425.320312 173.683594 C 420.929688 173.683594 417.371094 177.242188 417.371094 181.636719 C 417.371094 186.027344 420.929688 189.585938 425.320312 189.585938 C 429.714844 189.585938 433.273438 186.027344 433.273438 181.636719 C 433.273438 177.242188 429.714844 173.683594 425.320312 173.683594 Z M 425.320312 173.683594 " clip-rule="nonzero"/></clipPath><clipPath id="8b4a35fee3"><path d="M 11.046875 84.929688 L 178 84.929688 L 178 201 L 11.046875 201 Z M 11.046875 84.929688 " clip-rule="nonzero"/></clipPath><clipPath id="52496dab19"><path d="M 49 211 L 66 211 L 66 227.304688 L 49 227.304688 Z M 49 211 " clip-rule="nonzero"/></clipPath><clipPath id="076f4a6a87"><path d="M 88 211 L 105 211 L 105 227.304688 L 88 227.304688 Z M 88 211 " clip-rule="nonzero"/></clipPath><clipPath id="8f8c2157f7"><path d="M 36.015625 82.382812 L 116.523438 82.382812 L 116.523438 156 L 36.015625 156 Z M 36.015625 82.382812 " clip-rule="nonzero"/></clipPath><clipPath id="f4185dcbe7"><path d="M 39.210938 94.132812 C 32.585938 105.367188 37.28125 116.304688 43.058594 122.109375 L 76.855469 155.976562 L 109.9375 122.230469 C 115.3125 115.984375 117.398438 109.363281 116.226562 101.988281 C 114.648438 91.789062 106.601562 83.875 96.660156 82.742188 C 90.5625 82.0625 84.671875 83.859375 80.074219 87.851562 C 78.835938 88.925781 77.730469 90.125 76.769531 91.429688 C 75.625 89.945312 74.285156 88.585938 72.765625 87.378906 C 67.480469 83.183594 60.75 81.53125 54.289062 82.8125 C 48.167969 84.050781 42.671875 88.171875 39.210938 94.132812 Z M 39.210938 94.132812 " clip-rule="nonzero"/></clipPath></defs><g clip-path="url(#bd5aa05c4f)"><g clip-path="url(#624e1409fd)"><path fill="#ffffff" d="M 417.371094 173.683594 L 433.273438 173.683594 L 433.273438 189.585938 L 417.371094 189.585938 Z M 417.371094 173.683594 " fill-opacity="1" fill-rule="nonzero"/></g></g><g clip-path="url(#8b4a35fee3)"><path fill="#100f0d" d="M 36.964844 165.527344 L 20.871094 111.796875 L 40.472656 111.796875 C 40.5 111.921875 40.523438 112.042969 40.550781 112.164062 C 41.289062 115.226562 43.988281 121.066406 58.789062 136.359375 C 66.652344 144.484375 74.335938 151.515625 74.414062 151.585938 C 75.195312 152.300781 76.1875 152.660156 77.179688 152.660156 C 78.171875 152.660156 79.160156 152.300781 79.945312 151.582031 C 80.019531 151.515625 87.699219 144.484375 95.5625 136.359375 C 110.355469 121.066406 113.054688 115.226562 113.800781 112.167969 C 113.828125 112.042969 113.851562 111.921875 113.878906 111.796875 L 133.753906 111.796875 L 116.984375 165.527344 Z M 50.164062 99.695312 C 52.105469 96.515625 55.164062 94.28125 58.777344 93.40625 C 59.546875 93.21875 60.320312 93.125 61.070312 93.125 C 66.941406 93.125 71.433594 98.808594 73.28125 104.4375 C 73.835938 106.121094 75.40625 107.261719 77.179688 107.261719 C 78.949219 107.261719 80.523438 106.121094 81.074219 104.4375 C 82.921875 98.808594 87.414062 93.125 93.277344 93.125 C 94.03125 93.125 94.804688 93.21875 95.574219 93.40625 C 99.191406 94.28125 102.25 96.515625 104.1875 99.695312 C 105.617188 102.042969 106.308594 104.699219 106.21875 107.382812 C 106.210938 107.488281 106.203125 107.589844 106.203125 107.695312 C 106.203125 107.699219 106.203125 107.703125 106.203125 107.703125 C 106.15625 108.550781 106.035156 109.394531 105.828125 110.234375 C 105.546875 111.398438 103.550781 116.304688 89.695312 130.628906 C 84.847656 135.640625 80.066406 140.226562 77.175781 142.953125 C 74.285156 140.226562 69.503906 135.640625 64.652344 130.625 C 50.796875 116.304688 48.800781 111.398438 48.523438 110.234375 C 47.644531 106.617188 48.226562 102.875 50.164062 99.695312 Z M 173.875 84.921875 L 145.179688 84.921875 C 145.03125 84.921875 144.886719 84.929688 144.738281 84.941406 C 144.722656 84.945312 144.710938 84.949219 144.695312 84.953125 C 144.578125 84.964844 144.460938 84.980469 144.347656 85.003906 C 144.277344 85.015625 144.214844 85.035156 144.148438 85.054688 C 144.085938 85.070312 144.027344 85.082031 143.964844 85.097656 C 143.882812 85.125 143.804688 85.15625 143.726562 85.183594 C 143.679688 85.199219 143.636719 85.214844 143.59375 85.234375 C 143.515625 85.265625 143.4375 85.300781 143.363281 85.339844 C 143.320312 85.359375 143.277344 85.378906 143.234375 85.402344 C 143.167969 85.4375 143.101562 85.476562 143.039062 85.515625 C 142.988281 85.546875 142.9375 85.574219 142.890625 85.609375 C 142.835938 85.640625 142.789062 85.679688 142.738281 85.714844 C 142.679688 85.757812 142.621094 85.800781 142.566406 85.847656 C 142.53125 85.875 142.492188 85.910156 142.457031 85.941406 C 142.394531 85.996094 142.328125 86.050781 142.269531 86.113281 C 142.242188 86.140625 142.21875 86.167969 142.191406 86.195312 C 142.125 86.261719 142.0625 86.332031 142 86.40625 C 141.976562 86.433594 141.957031 86.460938 141.9375 86.492188 C 141.875 86.566406 141.816406 86.640625 141.761719 86.71875 C 141.734375 86.761719 141.710938 86.804688 141.683594 86.847656 C 141.640625 86.917969 141.597656 86.984375 141.558594 87.054688 C 141.511719 87.144531 141.46875 87.234375 141.425781 87.328125 C 141.414062 87.355469 141.398438 87.382812 141.382812 87.414062 C 141.328125 87.546875 141.277344 87.683594 141.234375 87.824219 L 136.3125 103.59375 L 114.179688 103.59375 C 113.742188 100.738281 112.738281 97.96875 111.1875 95.425781 C 108.109375 90.375 103.25 86.824219 97.5 85.433594 C 96.101562 85.09375 94.679688 84.925781 93.277344 84.925781 C 87.007812 84.925781 81.210938 88.328125 77.175781 94.035156 C 73.144531 88.328125 67.34375 84.925781 61.070312 84.925781 C 59.671875 84.925781 58.25 85.09375 56.847656 85.4375 C 51.105469 86.828125 46.246094 90.375 43.164062 95.425781 C 41.613281 97.96875 40.609375 100.738281 40.171875 103.59375 L 15.363281 103.59375 C 14.066406 103.59375 12.847656 104.207031 12.074219 105.25 C 11.296875 106.289062 11.0625 107.632812 11.433594 108.875 L 29.984375 170.804688 C 30.503906 172.542969 32.101562 173.730469 33.914062 173.730469 L 114.425781 173.730469 L 108.753906 191.890625 L 44.15625 191.890625 C 41.890625 191.890625 40.054688 193.726562 40.054688 195.992188 C 40.054688 198.257812 41.890625 200.09375 44.15625 200.09375 L 111.769531 200.09375 C 113.5625 200.09375 115.148438 198.925781 115.683594 197.214844 L 123.890625 170.921875 C 123.90625 170.875 123.921875 170.824219 123.9375 170.777344 L 148.171875 93.125 L 173.875 93.125 C 176.140625 93.125 177.976562 91.289062 177.976562 89.023438 C 177.976562 86.757812 176.140625 84.921875 173.875 84.921875 " fill-opacity="1" fill-rule="nonzero"/></g><g clip-path="url(#52496dab19)"><path fill="#100f0d" d="M 57.765625 219.386719 C 57.699219 219.386719 57.636719 219.320312 57.636719 219.246094 C 57.636719 219.179688 57.699219 219.109375 57.765625 219.109375 C 57.839844 219.109375 57.90625 219.175781 57.90625 219.246094 C 57.90625 219.324219 57.839844 219.386719 57.765625 219.386719 Z M 57.765625 211.183594 C 53.320312 211.183594 49.703125 214.800781 49.703125 219.246094 C 49.703125 223.695312 53.320312 227.3125 57.765625 227.3125 C 62.214844 227.3125 65.835938 223.695312 65.835938 219.246094 C 65.835938 214.800781 62.214844 211.183594 57.765625 211.183594 " fill-opacity="1" fill-rule="nonzero"/></g><g clip-path="url(#076f4a6a87)"><path fill="#100f0d" d="M 96.578125 219.386719 C 96.507812 219.386719 96.441406 219.320312 96.441406 219.246094 C 96.441406 219.175781 96.507812 219.109375 96.578125 219.109375 C 96.652344 219.109375 96.714844 219.175781 96.714844 219.246094 C 96.714844 219.324219 96.652344 219.386719 96.578125 219.386719 Z M 96.578125 211.183594 C 92.132812 211.183594 88.515625 214.800781 88.515625 219.246094 C 88.515625 223.695312 92.132812 227.3125 96.578125 227.3125 C 101.023438 227.3125 104.640625 223.695312 104.640625 219.246094 C 104.640625 214.800781 101.023438 211.183594 96.578125 211.183594 " fill-opacity="1" fill-rule="nonzero"/></g><g clip-path="url(#8f8c2157f7)"><g clip-path="url(#f4185dcbe7)"><path stroke-linecap="butt" transform="matrix(0.745413, 0, 0, 0.745413, 36.017518, 82.383795)" fill="none" stroke-linejoin="miter" d="M 4.284092 15.761746 C -4.603593 30.83308 1.695344 45.506146 9.445867 53.293351 L 54.785638 98.727449 L 99.16642 53.455803 C 106.377183 45.076434 109.175546 36.19399 107.603432 26.300151 C 105.486319 12.617518 94.691135 2.000507 81.354367 0.480797 C 73.174133 -0.431029 65.271639 1.979546 59.103712 7.335215 C 57.442511 8.776319 55.959483 10.385116 54.67035 12.135403 C 53.134918 10.144059 51.337468 8.320406 49.29896 6.701129 C 42.208725 1.07296 33.17955 -1.143721 24.511961 0.575124 C 16.300285 2.236325 8.927069 7.764926 4.284092 15.761746 Z M 4.284092 15.761746 " stroke="#fd88a5" stroke-width="34.209202" stroke-opacity="1" stroke-miterlimit="4"/></g></g><g fill="#fd88a5" fill-opacity="1"><g transform="translate(147.933545, 195.014761)"><g><path d="M 25.375 16.828125 L 21 10.21875 C 21.195312 9.957031 21.457031 9.628906 21.78125 9.234375 C 22.101562 8.847656 22.78125 8.117188 23.8125 7.046875 C 24.851562 5.984375 25.859375 5.046875 26.828125 4.234375 C 27.804688 3.421875 28.941406 2.6875 30.234375 2.03125 C 31.535156 1.382812 32.738281 1.0625 33.84375 1.0625 L 33.84375 0.6875 C 24.375 -1.132812 16.738281 -5.804688 10.9375 -13.328125 C 5.132812 -20.847656 2.234375 -29.796875 2.234375 -40.171875 C 2.234375 -51.835938 6.125 -61.671875 13.90625 -69.671875 C 21.6875 -77.679688 31.117188 -81.6875 42.203125 -81.6875 C 53.359375 -81.6875 62.789062 -77.679688 70.5 -69.671875 C 78.21875 -61.671875 82.078125 -51.835938 82.078125 -40.171875 C 82.078125 -30.640625 79.515625 -22.238281 74.390625 -14.96875 C 69.273438 -7.707031 62.535156 -2.816406 54.171875 -0.296875 L 54.171875 0.09375 C 54.554688 0.09375 56.269531 0.398438 59.3125 1.015625 C 62.363281 1.628906 64.796875 1.9375 66.609375 1.9375 C 69.078125 1.9375 71.316406 1.5 73.328125 0.625 C 75.335938 -0.25 76.734375 -1.101562 77.515625 -1.9375 L 78.671875 -3.3125 L 84.40625 9.046875 C 84.28125 9.367188 84.070312 9.769531 83.78125 10.25 C 83.488281 10.738281 82.820312 11.597656 81.78125 12.828125 C 80.75 14.066406 79.597656 15.171875 78.328125 16.140625 C 77.066406 17.117188 75.382812 17.992188 73.28125 18.765625 C 71.175781 19.546875 68.921875 19.9375 66.515625 19.9375 C 62.566406 19.9375 57.738281 18.671875 52.03125 16.140625 C 46.320312 13.609375 41.394531 12.34375 37.25 12.34375 C 34.976562 12.34375 32.851562 12.71875 30.875 13.46875 C 28.894531 14.21875 27.484375 14.976562 26.640625 15.75 Z M 21.984375 -40.171875 C 21.984375 -37.054688 22.335938 -34.148438 23.046875 -31.453125 C 23.765625 -28.765625 24.882812 -26.316406 26.40625 -24.109375 C 27.925781 -21.910156 30.03125 -20.175781 32.71875 -18.90625 C 35.414062 -17.644531 38.578125 -17.015625 42.203125 -17.015625 C 49.015625 -17.015625 54.070312 -19.21875 57.375 -23.625 C 60.6875 -28.039062 62.34375 -33.554688 62.34375 -40.171875 C 62.34375 -46.710938 60.65625 -52.203125 57.28125 -56.640625 C 53.90625 -61.085938 48.878906 -63.3125 42.203125 -63.3125 C 35.585938 -63.3125 30.5625 -61.070312 27.125 -56.59375 C 23.695312 -52.125 21.984375 -46.648438 21.984375 -40.171875 Z M 21.984375 -40.171875 "/></g></g></g><g fill="#fd88a5" fill-opacity="1"><g transform="translate(223.596217, 195.014761)"><g><path d="M 22.078125 -49.890625 L 22.078125 -26.15625 C 22.078125 -21.226562 22.820312 -17.726562 24.3125 -15.65625 C 25.800781 -13.582031 28.328125 -12.546875 31.890625 -12.546875 C 35.460938 -12.546875 37.992188 -13.582031 39.484375 -15.65625 C 40.972656 -17.726562 41.71875 -21.226562 41.71875 -26.15625 L 41.71875 -49.890625 L 58.9375 -49.890625 L 58.9375 -21.984375 C 58.9375 -13.679688 56.78125 -7.695312 52.46875 -4.03125 C 48.15625 -0.375 41.296875 1.453125 31.890625 1.453125 C 22.492188 1.453125 15.640625 -0.375 11.328125 -4.03125 C 7.015625 -7.695312 4.859375 -13.679688 4.859375 -21.984375 L 4.859375 -49.890625 Z M 22.078125 -49.890625 "/></g></g></g><g fill="#fd88a5" fill-opacity="1"><g transform="translate(278.738465, 195.014761)"><g><path d="M 7.484375 -77.703125 C 9.492188 -79.710938 11.890625 -80.71875 14.671875 -80.71875 C 17.460938 -80.71875 19.863281 -79.710938 21.875 -77.703125 C 23.882812 -75.691406 24.890625 -73.289062 24.890625 -70.5 C 24.890625 -67.71875 23.882812 -65.320312 21.875 -63.3125 C 19.863281 -61.300781 17.460938 -60.296875 14.671875 -60.296875 C 11.890625 -60.296875 9.492188 -61.300781 7.484375 -63.3125 C 5.472656 -65.320312 4.46875 -67.71875 4.46875 -70.5 C 4.46875 -73.289062 5.472656 -75.691406 7.484375 -77.703125 Z M 5.828125 -49.890625 L 5.828125 0 L 23.046875 0 L 23.046875 -49.890625 Z M 5.828125 -49.890625 "/></g></g></g><g fill="#fd88a5" fill-opacity="1"><g transform="translate(299.453067, 195.014761)"><g><path d="M 32.390625 -37.25 C 29.140625 -37.25 26.347656 -36.046875 24.015625 -33.640625 C 21.679688 -31.242188 20.515625 -28.363281 20.515625 -25 C 20.515625 -21.5625 21.679688 -18.640625 24.015625 -16.234375 C 26.347656 -13.835938 29.140625 -12.640625 32.390625 -12.640625 C 33.941406 -12.640625 35.414062 -12.832031 36.8125 -13.21875 C 38.207031 -13.613281 39.226562 -14.003906 39.875 -14.390625 L 40.75 -14.96875 L 46.578125 -3.015625 C 46.128906 -2.691406 45.5 -2.285156 44.6875 -1.796875 C 43.875 -1.304688 42.023438 -0.644531 39.140625 0.1875 C 36.253906 1.03125 33.160156 1.453125 29.859375 1.453125 C 22.523438 1.453125 16.085938 -1.117188 10.546875 -6.265625 C 5.003906 -11.421875 2.234375 -17.597656 2.234375 -24.796875 C 2.234375 -32.054688 5.003906 -38.296875 10.546875 -43.515625 C 16.085938 -48.734375 22.523438 -51.34375 29.859375 -51.34375 C 33.160156 -51.34375 36.203125 -50.953125 38.984375 -50.171875 C 41.773438 -49.398438 43.753906 -48.625 44.921875 -47.84375 L 46.578125 -46.6875 L 40.75 -34.90625 C 38.601562 -36.46875 35.816406 -37.25 32.390625 -37.25 Z M 32.390625 -37.25 "/></g></g></g><g fill="#fd88a5" fill-opacity="1"><g transform="translate(338.548521, 195.014761)"><g><path d="M 62.828125 -49.890625 L 39.09375 -26.0625 L 65.15625 0 L 42.984375 0 L 23.046875 -19.9375 L 23.046875 0 L 5.828125 0 L 5.828125 -83.640625 L 23.046875 -83.640625 L 23.046875 -32.484375 L 40.453125 -49.890625 Z M 62.828125 -49.890625 "/></g></g></g><g fill="#000000" fill-opacity="1"><g transform="translate(392.720335, 195.014761)"><g><path d="M 48.53125 -16.53125 C 51.3125 -16.53125 54.015625 -16.953125 56.640625 -17.796875 C 59.273438 -18.640625 61.207031 -19.453125 62.4375 -20.234375 L 64.28125 -21.5 L 72.0625 -5.9375 C 71.800781 -5.738281 71.441406 -5.476562 70.984375 -5.15625 C 70.535156 -4.832031 69.484375 -4.234375 67.828125 -3.359375 C 66.179688 -2.484375 64.414062 -1.71875 62.53125 -1.0625 C 60.65625 -0.414062 58.191406 0.160156 55.140625 0.671875 C 52.085938 1.191406 48.941406 1.453125 45.703125 1.453125 C 38.253906 1.453125 31.1875 -0.375 24.5 -4.03125 C 17.820312 -7.695312 12.441406 -12.738281 8.359375 -19.15625 C 4.273438 -25.570312 2.234375 -32.507812 2.234375 -39.96875 C 2.234375 -45.613281 3.429688 -51.023438 5.828125 -56.203125 C 8.234375 -61.390625 11.425781 -65.832031 15.40625 -69.53125 C 19.394531 -73.226562 24.046875 -76.175781 29.359375 -78.375 C 34.679688 -80.582031 40.128906 -81.6875 45.703125 -81.6875 C 50.890625 -81.6875 55.671875 -81.070312 60.046875 -79.84375 C 64.421875 -78.613281 67.519531 -77.378906 69.34375 -76.140625 L 72.0625 -74.296875 L 64.28125 -58.734375 C 63.820312 -59.128906 63.140625 -59.597656 62.234375 -60.140625 C 61.328125 -60.691406 59.507812 -61.421875 56.78125 -62.328125 C 54.0625 -63.242188 51.3125 -63.703125 48.53125 -63.703125 C 44.125 -63.703125 40.164062 -62.988281 36.65625 -61.5625 C 33.15625 -60.132812 30.382812 -58.253906 28.34375 -55.921875 C 26.300781 -53.585938 24.742188 -51.070312 23.671875 -48.375 C 22.609375 -45.6875 22.078125 -42.953125 22.078125 -40.171875 C 22.078125 -34.066406 24.359375 -28.597656 28.921875 -23.765625 C 33.492188 -18.941406 40.03125 -16.53125 48.53125 -16.53125 Z M 48.53125 -16.53125 "/></g></g></g><g fill="#000000" fill-opacity="1"><g transform="translate(457.296142, 195.014761)"><g><path d="M 9.234375 -6.171875 C 4.566406 -11.265625 2.234375 -17.503906 2.234375 -24.890625 C 2.234375 -32.285156 4.566406 -38.539062 9.234375 -43.65625 C 13.898438 -48.78125 19.832031 -51.34375 27.03125 -51.34375 C 33.644531 -51.34375 39.09375 -49.269531 43.375 -45.125 L 43.375 -49.890625 L 60.59375 -49.890625 L 60.59375 0 L 43.5625 0 L 43.5625 -5.640625 L 43.375 -5.640625 C 39.09375 -0.910156 33.644531 1.453125 27.03125 1.453125 C 19.832031 1.453125 13.898438 -1.085938 9.234375 -6.171875 Z M 23.875 -33.34375 C 21.632812 -31.144531 20.515625 -28.328125 20.515625 -24.890625 C 20.515625 -21.453125 21.582031 -18.644531 23.71875 -16.46875 C 25.863281 -14.300781 28.6875 -13.21875 32.1875 -13.21875 C 35.5625 -13.21875 38.332031 -14.320312 40.5 -16.53125 C 42.675781 -18.738281 43.765625 -21.523438 43.765625 -24.890625 C 43.765625 -28.328125 42.644531 -31.144531 40.40625 -33.34375 C 38.164062 -35.550781 35.425781 -36.65625 32.1875 -36.65625 C 28.882812 -36.65625 26.113281 -35.550781 23.875 -33.34375 Z M 23.875 -33.34375 "/></g></g></g><g fill="#000000" fill-opacity="1"><g transform="translate(515.064217, 195.014761)"><g><path d="M 5.828125 0 L 5.828125 -49.890625 L 23.046875 -49.890625 L 23.046875 -42.6875 L 23.25 -42.6875 C 23.375 -42.945312 23.582031 -43.269531 23.875 -43.65625 C 24.164062 -44.050781 24.796875 -44.734375 25.765625 -45.703125 C 26.742188 -46.679688 27.78125 -47.554688 28.875 -48.328125 C 29.976562 -49.109375 31.40625 -49.804688 33.15625 -50.421875 C 34.90625 -51.035156 36.691406 -51.34375 38.515625 -51.34375 C 40.390625 -51.34375 42.234375 -51.082031 44.046875 -50.5625 C 45.867188 -50.050781 47.203125 -49.535156 48.046875 -49.015625 L 49.40625 -48.234375 L 42.203125 -33.65625 C 40.066406 -35.46875 37.085938 -36.375 33.265625 -36.375 C 31.179688 -36.375 29.394531 -35.921875 27.90625 -35.015625 C 26.414062 -34.109375 25.363281 -33.003906 24.75 -31.703125 C 24.132812 -30.410156 23.695312 -29.304688 23.4375 -28.390625 C 23.175781 -27.484375 23.046875 -26.769531 23.046875 -26.25 L 23.046875 0 Z M 5.828125 0 "/></g></g></g><g fill="#000000" fill-opacity="1"><g transform="translate(554.840446, 195.014761)"><g><path d="M 8.75 -49.890625 L 8.75 -68.46875 L 25.96875 -68.46875 L 25.96875 -49.890625 L 36.46875 -49.890625 L 36.46875 -36.765625 L 25.96875 -36.765625 L 25.96875 -20.90625 C 25.96875 -16.300781 27.265625 -14 29.859375 -14 C 30.503906 -14 31.179688 -14.128906 31.890625 -14.390625 C 32.609375 -14.648438 33.160156 -14.910156 33.546875 -15.171875 L 34.140625 -15.5625 L 38.40625 -1.65625 C 34.71875 0.414062 30.503906 1.453125 25.765625 1.453125 C 22.523438 1.453125 19.738281 0.890625 17.40625 -0.234375 C 15.070312 -1.367188 13.304688 -2.894531 12.109375 -4.8125 C 10.910156 -6.726562 10.050781 -8.738281 9.53125 -10.84375 C 9.007812 -12.945312 8.75 -15.203125 8.75 -17.609375 L 8.75 -36.765625 L 1.5625 -36.765625 L 1.5625 -49.890625 Z M 8.75 -49.890625 "/></g></g></g></svg>